<?xml version="1.0" standalone="no"?><svg xmlns="http://www.w3.org/2000/svg" viewBox="0 0 1440 320"><path fill="#0099ff" fill-opacity="1" d="M0,224L9.6,192C19.2,160,38,96,58,90.7C76.8,85,96,139,115,144C134.4,149,154,107,173,106.7C192,107,211,149,230,170.7C249.6,192,269,192,288,186.7C307.2,181,326,171,346,149.3C364.8,128,384,96,403,106.7C422.4,117,442,171,461,192C480,213,499,203,518,165.3C537.6,128,557,64,576,48C595.2,32,614,64,634,112C652.8,160,672,224,691,240C710.4,256,730,224,749,218.7C768,213,787,235,806,224C825.6,213,845,171,864,170.7C883.2,171,902,213,922,202.7C940.8,192,960,128,979,85.3C998.4,43,1018,21,1037,42.7C1056,64,1075,128,1094,165.3C1113.6,203,1133,213,1152,208C1171.2,203,1190,181,1210,170.7C1228.8,160,1248,160,1267,176C1286.4,192,1306,224,1325,224C1344,224,1363,192,1382,165.3C1401.6,139,1421,117,1430,106.7L1440,96L1440,320L1430.4,320C1420.8,320,1402,320,1382,320C1363.2,320,1344,320,1325,320C1305.6,320,1286,320,1267,320C1248,320,1229,320,1210,320C1190.4,320,1171,320,1152,320C1132.8,320,1114,320,1094,320C1075.2,320,1056,320,1037,320C1017.6,320,998,320,979,320C960,320,941,320,922,320C902.4,320,883,320,864,320C844.8,320,826,320,806,320C787.2,320,768,320,749,320C729.6,320,710,320,691,320C672,320,653,320,634,320C614.4,320,595,320,576,320C556.8,320,538,320,518,320C499.2,320,480,320,461,320C441.6,320,422,320,403,320C384,320,365,320,346,320C326.4,320,307,320,288,320C268.8,320,250,320,230,320C211.2,320,192,320,173,320C153.6,320,134,320,115,320C96,320,77,320,58,320C38.4,320,19,320,10,320L0,320Z"></path></svg>